<?xml version="1.0" ?><!DOCTYPE svg  PUBLIC '-//W3C//DTD SVG 1.1//EN'  'http://www.w3.org/Graphics/SVG/1.1/DTD/svg11.dtd'><svg height="2048px" style="shape-rendering:geometricPrecision; text-rendering:geometricPrecision; image-rendering:optimizeQuality; fill-rule:evenodd; clip-rule:evenodd" viewBox="0 0 2048 2048" width="2048px" xml:space="preserve" xmlns="http://www.w3.org/2000/svg" xmlns:xlink="http://www.w3.org/1999/xlink"><defs><style type="text/css">
   <![CDATA[
    .fil3 {fill:none}
    .fil0 {fill:#E0E0E0}
    .fil2 {fill:#1D75CE;fill-rule:nonzero}
    .fil1 {fill:#FF0084;fill-rule:nonzero}
   ]]>
  </style></defs><g id="Layer_x0020_1"><g id="_337151272"><path class="fil0" d="M479.255 255.999l1089.49 0c122.792,0 223.256,100.463 223.256,223.256l0 1089.49c0,122.791 -100.463,223.256 -223.256,223.256l-1089.49 0c-122.791,0 -223.256,-100.465 -223.256,-223.256l0 -1089.49c0,-122.792 100.465,-223.256 223.256,-223.256z" id="_251374848"/><path class="fil1" d="M1189.81 1202.02c-47.2713,-47.2678 -76.5107,-112.572 -76.5107,-184.703 0,-72.1382 29.2382,-137.445 76.5083,-184.716 47.2713,-47.2701 112.578,-76.5083 184.716,-76.5083l0.0011811 0c72.13,0 137.432,29.2382 184.702,76.5083 47.2678,47.2713 76.506,112.578 76.506,184.714l0 0.00236221c0,72.13 -29.237,137.433 -76.506,184.703 -47.2701,47.2689 -112.573,76.506 -184.703,76.506 -72.1371,0 -137.444,-29.237 -184.714,-76.506z" id="_251374776"/><path class="fil2" d="M546.834 1202.02c-47.2701,-47.2678 -76.5095,-112.572 -76.5095,-184.703 0,-72.1382 29.2382,-137.445 76.5083,-184.716 47.2713,-47.2701 112.578,-76.5083 184.716,-76.5083l0.0011811 0c72.13,0 137.432,29.2382 184.702,76.5083 47.2678,47.2713 76.506,112.578 76.506,184.714l0 0.00236221c0,72.13 -29.237,137.433 -76.506,184.703 -47.2713,47.2689 -112.573,76.506 -184.703,76.506 -72.1371,0 -137.444,-29.237 -184.715,-76.506z" id="_251375088"/></g></g><rect class="fil3" height="2048" width="2048"/></svg>